<svg xmlns="http://www.w3.org/2000/svg" aria-hidden="true" style="position:absolute;width:0;height:0;overflow:hidden">
  <defs>
    <symbol id="icon-mobile-screen" viewBox="0 0 21 32">
      <path d="M16.935 2.286H3.636c-1.377 0-2.494 1.152-2.494 2.571v22.286c0 1.42 1.117 2.571 2.494 2.571h13.299c1.377 0 2.494-1.152 2.494-2.571V4.857c0-1.42-1.117-2.571-2.494-2.571zm-4.156 23.952c0 .52-.374.905-.831.905H8.577c-.41 0-.784-.386-.784-.857s.374-.857.831-.857h3.325c.457 0 .831.386.831.809zm3.325-3.381H4.468V5.714h11.636v17.143z"/>
    </symbol>
  </defs>
</svg>
