<svg xmlns="http://www.w3.org/2000/svg" aria-hidden="true" style="position:absolute;width:0;height:0;overflow:hidden">
  <defs>
    <symbol id="icon-collaboration-img" viewBox="0 0 35 32">
      <path fill="#fafafa" d="M6.855 26.756c6.19 4.005 16.23 4.005 22.42 0s6.19-10.497 0-14.501-16.23-4.005-22.42 0-6.192 10.497 0 14.501z" style="fill:var(--color1, #fafafa)"/>
      <path fill="#02897a" d="M31.061 11.962c.034-.465.361-1.257.845-1.819s1.258-.837 1.736-.609c.445.213.347.866-.24 1.252s-1.461.861-1.761 1.593l-.58.878v-1.294z" style="fill:var(--color2, #02897a)"/>
      <path d="M31.061 11.962c.034-.465.361-1.257.845-1.819s1.258-.837 1.736-.609c.445.213.347.866-.24 1.252s-1.461.861-1.761 1.593l-.58.878v-1.294z" opacity=".2" style="fill:var(--color3, #000)"/>
      <path fill="#02897a" d="M31.127 14.048c.085-.248.457-.709.991-.934s.938-.428 1.132-.791c.195-.364-.144-.721-.684-.695s-1.439.645-1.502 1.629l.063.792zM3.244 16.41a5.783 5.783 0 0 0-.393-1.908c-.398-1.033-1.203-1.579-1.631-1.654s-.872.496-.326 1.174 1.592 1.586 1.893 2.96l.491.938-.033-1.51z" style="fill:var(--color2, #02897a)"/>
      <path d="M3.244 16.41a5.783 5.783 0 0 0-.393-1.908c-.398-1.033-1.203-1.579-1.631-1.654s-.872.496-.326 1.174 1.592 1.586 1.893 2.96l.491.938-.033-1.51z" opacity=".2" style="fill:var(--color3, #000)"/>
      <path fill="#02897a" d="M3.177 18.882c-.122-.533-.439-1.053-1.074-1.576S.62 16.334.689 15.801c.069-.533.713-.496 1.184-.26s1.288 1.206 1.405 2.378l-.1.963z" style="fill:var(--color2, #02897a)"/>
      <path fill="#263238" d="M3.35 19.211c-.051-.036-.093-.085-.123-.143s-.047-.122-.051-.188V6.943c.003-.066.021-.131.051-.188s.072-.106.123-.143L7.243 4.15a.308.308 0 0 1 .337-.006c.051.033.094.08.122.137s.043.121.041.186v.797c0 .122.076.171.174.11l4.871-3.08a.301.301 0 0 1 .336-.006c.051.032.094.08.122.136s.043.121.041.186v18.348l-3.59 2.269-6.348-4.016z" style="fill:var(--color4, #263238)"/>
      <path fill="#455a64" d="M13.125 2.289a.34.34 0 0 0-.337.007l-4.871 3.08c-.097.061-.174.012-.174-.11v-.797c.002-.065-.012-.129-.041-.186s-.071-.104-.122-.137a.301.301 0 0 0-.337.006L3.35 6.614a.386.386 0 0 0-.123.142L5.46 8.168l7.828-4.952v-.604c-.002-.064-.018-.127-.046-.183s-.068-.104-.117-.14z" style="fill:var(--color5, #455a64)"/>
      <path fill="#37474f" d="M13.115 2.501 7.918 5.788c-.097.061-.174.012-.174-.11v-1.21c0-.122-.075-.171-.174-.11L3.677 6.82c-.051.036-.093.085-.123.143s-.048.122-.051.188v11.528c.003.066.021.131.051.188s.073.106.124.142l6.349 4.016 3.262-2.062V2.611c0-.122-.078-.17-.174-.11z" style="fill:var(--color6, #37474f)"/>
      <path fill="#263238" d="M3.554 18.863a.377.377 0 0 0 .123.142l6.349 4.016 3.262-2.062v-8.252l-9.734 6.156z" style="fill:var(--color4, #263238)"/>
      <path fill="#f5f5f5" d="m4.342 21.491-.048-.03a.354.354 0 0 1-.14-.264V9.996c.003-.053.017-.104.041-.15s.058-.085.099-.114L14.779 3.1c.043-.024.091-.037.139-.037s.096.013.139.037l.048.031c.041.029.075.068.099.113s.038.097.041.15v11.198c-.003.053-.017.104-.041.15s-.058.085-.099.114L4.62 21.49c-.043.024-.091.037-.139.037s-.096-.013-.139-.037z" style="fill:var(--color7, #f5f5f5)"/>
      <path fill="#e0e0e0" d="m4.807 10.23-.611-.387a.34.34 0 0 0-.041.15v11.201c.003.053.017.104.041.15s.058.085.099.114l.048.03c.043.024.091.037.139.037s.096-.013.139-.037l.186-.118V10.23z" style="fill:var(--color8, #e0e0e0)"/>
      <path fill="#ebebeb" d="M4.482 21.4V10.199c.003-.053.017-.104.041-.15s.058-.085.098-.114l10.485-6.632c.076-.048.14-.009.14.088v11.201c-.003.053-.017.104-.041.15s-.058.085-.099.114L4.621 21.49c-.077.046-.139.008-.139-.09z" style="fill:var(--color9, #ebebeb)"/>
      <path fill="#fff" d="m5.308 10.327 9.111-5.762c.096-.061.174-.012.174.11v8.636a.436.436 0 0 1-.174.331l-9.111 5.761c-.096.061-.174.012-.174-.11v-8.636c.003-.066.021-.131.051-.188s.072-.106.123-.143z" style="fill:var(--color10, #fff)"/>
      <path fill="#ffb900" d="M6.814 9.896c.568-.359 1.027-.068 1.027.65s-.46 1.59-1.027 1.949c-.568.359-1.027.069-1.027-.649s.46-1.591 1.027-1.95zM7.766 12.499c.035-.071.085-.132.145-.178s.13-.076.203-.087c.073-.011.147-.003.217.024s.132.071.184.129l1.184 1.35 2.25-6.046c.033-.089.088-.165.159-.221s.155-.089.242-.096c.087-.007.174.014.251.059s.141.113.185.196l1.806 3.427v2.256a.436.436 0 0 1-.174.331l-9.11 5.761c-.096.061-.174.012-.174-.11v-1.431L7.765 12.5z" style="fill:var(--color11, #ffb900)"/>
      <path fill="#f5f5f5" d="m6.301 22.731-.048-.031c-.04-.029-.074-.068-.098-.114s-.038-.097-.041-.15V11.231c.003-.053.017-.104.041-.15s.058-.085.098-.114l10.486-6.631c.043-.024.091-.037.139-.037s.096.013.139.037l.048.03c.041.029.074.068.098.114s.038.097.041.15v11.201c-.002.053-.016.104-.04.15s-.058.085-.099.113L6.577 22.73c-.043.024-.09.037-.138.037s-.095-.013-.138-.037z" style="fill:var(--color7, #f5f5f5)"/>
      <path fill="#e0e0e0" d="m6.765 11.469-.611-.387a.336.336 0 0 0-.041.15v11.201c.003.053.017.104.041.15s.058.085.098.114l.048.031c.043.024.091.037.139.037s.096-.013.139-.037l.187-.118V11.47z" style="fill:var(--color8, #e0e0e0)"/>
      <path fill="#ebebeb" d="M6.439 22.639V11.438c.003-.053.017-.104.041-.15s.058-.085.098-.114l10.486-6.632c.075-.049.139-.009.139.088v11.201c-.002.053-.016.104-.04.15s-.058.085-.099.113L6.578 22.73c-.076.045-.139.005-.139-.092z" style="fill:var(--color9, #ebebeb)"/>
      <path fill="#fff" d="m7.265 11.568 9.111-5.763c.096-.06.174-.011.174.11v8.635a.436.436 0 0 1-.174.331l-9.111 5.763c-.097.06-.174.012-.174-.11v-8.635c.003-.066.021-.131.051-.188s.073-.106.124-.142z" style="fill:var(--color10, #fff)"/>
      <path fill="#11b5e4" d="M8.771 11.135c.567-.359 1.027-.068 1.027.65s-.46 1.59-1.027 1.949-1.027.068-1.027-.65.46-1.59 1.027-1.949zM9.723 13.738c.035-.071.084-.132.145-.178s.13-.076.203-.087c.073-.011.147-.003.217.024s.132.071.183.129l1.19 1.35L13.91 8.93c.033-.089.088-.166.159-.222s.155-.09.242-.096.175.014.252.059a.493.493 0 0 1 .185.196l1.806 3.427v2.255a.436.436 0 0 1-.174.331l-9.111 5.763c-.097.06-.174.012-.174-.11v-1.431l2.629-5.364z" style="fill:var(--color12, #11b5e4)"/>
      <path fill="#f5f5f5" d="m8.256 23.964-.048-.03c-.04-.029-.074-.068-.098-.114s-.038-.097-.041-.15V12.469c.002-.053.017-.104.041-.15s.058-.085.099-.113l10.485-6.632c.043-.024.091-.037.139-.037s.096.013.139.037l.048.031c.041.029.075.068.099.113s.038.097.041.15v11.201c-.003.053-.017.104-.041.15s-.058.085-.099.114L8.535 23.964a.287.287 0 0 1-.28 0z" style="fill:var(--color7, #f5f5f5)"/>
      <path fill="#e0e0e0" d="m8.722 12.706-.609-.387a.34.34 0 0 0-.041.15V23.67c.003.053.017.104.041.15s.058.085.098.114l.048.03c.043.024.091.037.139.037s.096-.013.139-.037l.187-.118-.002-11.14z" style="fill:var(--color8, #e0e0e0)"/>
      <path fill="#ebebeb" d="M8.396 23.876V12.675c.003-.053.017-.104.041-.15s.058-.085.098-.114L19.02 5.778c.076-.048.14-.009.14.088v11.202c-.003.053-.017.104-.041.15s-.058.085-.099.114L8.535 23.963c-.077.049-.139.007-.139-.088z" style="fill:var(--color9, #ebebeb)"/>
      <path fill="#fff" d="m9.222 12.802 9.111-5.762c.096-.061.174-.012.174.11v8.635a.436.436 0 0 1-.174.331L9.222 21.88c-.096.061-.174.012-.174-.11v-8.637c.003-.066.021-.13.051-.188s.072-.106.123-.142z" style="fill:var(--color10, #fff)"/>
      <path fill="#f03e3d" d="M10.728 12.372c.568-.359 1.027-.068 1.027.65s-.46 1.59-1.027 1.949c-.568.359-1.03.069-1.03-.649s.462-1.591 1.03-1.95zM11.68 14.975c.035-.071.085-.132.145-.178s.13-.076.203-.087c.073-.011.147-.003.217.024s.133.071.184.129l1.186 1.35 2.25-6.046c.033-.089.088-.165.159-.222s.155-.089.242-.096c.087-.007.174.014.252.059s.141.113.185.196l1.806 3.427v2.253a.426.426 0 0 1-.174.331l-9.111 5.764c-.096.061-.174.012-.174-.11v-1.431l2.631-5.363z" style="fill:var(--color13, #f03e3d)"/>
      <path fill="#263238" d="m10.027 23.02.978-.619v1.238l-.978-.619z" style="fill:var(--color4, #263238)"/>
      <path fill="#263238" d="M11.005 14.37v9.05c0 .122-.076.17-.174.11l-.805-.509-.328.207 1.457.921a.356.356 0 0 0 .348 0l10.092-6.379c.051-.036.093-.085.123-.143s.048-.122.051-.188V7.976c.002-.065-.012-.129-.041-.186s-.071-.104-.123-.137c-.051-.032-.11-.049-.169-.048s-.117.02-.168.054l-10.09 6.381c-.051.036-.093.085-.123.142s-.048.122-.051.188z" style="fill:var(--color4, #263238)"/>
      <path fill="#455a64" d="m11.661 14.563 10.115-6.395v-.193c.002-.065-.012-.129-.041-.186s-.071-.104-.123-.137c-.051-.032-.11-.049-.169-.048s-.117.02-.168.054l-10.097 6.381a.369.369 0 0 0-.123.142l.605.38z" style="fill:var(--color5, #455a64)"/>
      <path fill="#37474f" d="m21.595 7.865-10.09 6.381c-.051.036-.093.085-.123.143s-.048.122-.051.188v9.461c0 .122.076.171.174.11l10.09-6.379c.051-.036.093-.085.123-.143s.048-.122.051-.188V7.975c0-.122-.078-.171-.174-.11z" style="fill:var(--color6, #37474f)"/>
      <path fill="#fafafa" d="M14.018 20.107a.1.1 0 0 1-.055-.016.15.15 0 0 1-.06-.134v-4.599c.003-.06.018-.119.046-.171s.066-.096.112-.129l4.941-3.125c.019-.017.042-.026.067-.028s.049.004.07.018c.021.013.038.033.049.057s.014.051.011.077v4.599c-.003.06-.018.119-.046.171s-.066.096-.112.129L14.1 20.085a.148.148 0 0 1-.081.022zm5.065-8.118a.079.079 0 0 0-.043.016l-4.941 3.124c-.035.025-.063.059-.084.099s-.033.084-.036.129v4.599c-.001.012 0 .023.004.034s.01.021.018.028c.01.004.021.005.031.003s.02-.007.029-.014l4.941-3.125c.035-.025.064-.059.084-.098s.033-.084.036-.129v-4.599a.076.076 0 0 0-.022-.062.034.034 0 0 0-.017-.005z" style="fill:var(--color1, #fafafa)"/>
      <path fill="#fafafa" d="M14.814 16.146a.234.234 0 0 1-.123-.035c-.047-.035-.084-.083-.108-.139s-.034-.118-.028-.18c.008-.159.05-.313.123-.451s.174-.255.295-.342a.258.258 0 0 1 .318-.027c.049.031.088.078.113.135s.032.12.023.181c-.008.159-.05.313-.123.451s-.174.255-.296.342a.372.372 0 0 1-.194.065zm.356-1.129a.31.31 0 0 0-.159.055c-.11.079-.202.186-.267.311s-.103.266-.11.41c-.01.047-.006.097.012.141s.048.082.086.106c.038.024.083.034.127.029s.085-.026.118-.06c.11-.079.202-.186.267-.311s.103-.266.11-.41c.005-.047-.001-.095-.018-.139s-.045-.081-.08-.109a.154.154 0 0 0-.085-.023zM13.941 19.761a.031.031 0 0 1-.015-.008c-.004-.002-.008-.006-.012-.01s-.006-.009-.007-.014c-.001-.005-.002-.011-.001-.016l.004-.015 1.463-3.146c.022-.048.054-.089.093-.12s.085-.053.133-.062a.297.297 0 0 1 .268.092l1.446 1.525c.004.004.006.008.008.013s.003.01.003.016-.001.011-.003.016l-.008.013a.034.034 0 0 1-.027.012.04.04 0 0 1-.015-.003.027.027 0 0 1-.012-.009l-1.446-1.521a.226.226 0 0 0-.203-.068.235.235 0 0 0-.171.137l-1.463 3.147c-.003.007-.008.013-.015.017s-.013.006-.021.006z" style="fill:var(--color1, #fafafa)"/>
      <path fill="#fafafa" d="M16.55 17.286a.038.038 0 0 1-.015 0c-.009-.004-.016-.012-.02-.022s-.004-.021 0-.031l1.132-2.868c.02-.052.052-.098.093-.132s.089-.057.14-.065a.284.284 0 0 1 .276.115l1.03 1.364c.003.004.006.009.007.014l.002.016c0 .005-.002.011-.004.015l-.009.012c-.007.006-.016.009-.024.009s-.017-.004-.024-.01l-1.03-1.364c-.025-.033-.057-.058-.093-.074s-.075-.02-.114-.014-.075.023-.106.049a.242.242 0 0 0-.07.099l-1.132 2.867c-.004.008-.01.013-.017.017s-.015.005-.023.004z" style="fill:var(--color1, #fafafa)"/>
      <path fill="#ba68c8" d="M20.256 9.963c-.233 0-.39-.153-.39-.38l.02-1.434c0-.391 0-.985.399-1.24.082-.057.177-.089.275-.093s.194.022.279.074c.085.052.156.128.206.22s.075.197.075.304c0 .115-.004.256-.01.418a.128.128 0 0 1-.036.086.105.105 0 0 1-.082.032.111.111 0 0 1-.079-.041c-.01-.012-.018-.026-.023-.042s-.007-.032-.007-.048c.005-.156.009-.298.009-.408 0-.063-.015-.126-.044-.18s-.072-.099-.123-.129-.108-.044-.166-.041a.29.29 0 0 0-.161.06c-.264.165-.285.579-.285 1.024l-.02 1.436c0 .108.088.131.163.131.123-.003.24-.059.327-.155s.136-.225.137-.36l-.008-.566c0-.033.012-.064.033-.088s.05-.036.08-.036.059.013.08.036a.131.131 0 0 1 .033.088l.008.567c.001.201-.072.395-.201.538s-.305.224-.489.226z" style="fill:var(--color14, #ba68c8)"/>
      <path fill="#455a64" d="m21.956 18.777-7.876 4.981a.354.354 0 0 0-.14.264v.06c.003.053.017.105.041.151s.058.085.099.114l6.571 4.156c.043.024.091.037.139.037s.096-.013.139-.037l7.876-4.981a.354.354 0 0 0 .14-.264v-.061c-.003-.053-.017-.104-.041-.15s-.058-.085-.099-.114l-6.571-4.156c-.043-.024-.091-.037-.139-.037s-.096.013-.139.037z" style="fill:var(--color5, #455a64)"/>
      <path fill="#263238" d="M13.941 24.022v.06c.003.053.017.105.041.151s.058.085.099.114l6.571 4.156a.265.265 0 0 0 .139.036v-.774l-6.524-4.125-.186.118c-.04.029-.074.068-.098.113s-.038.097-.041.15z" style="fill:var(--color4, #263238)"/>
      <path fill="#37474f" d="m14.08 23.758 7.876-4.981c.043-.024.091-.037.139-.037s.096.013.139.037l6.571 4.156c.017.006.032.018.042.034s.016.035.016.054c0 .02-.006.039-.016.054s-.025.028-.042.034l-7.876 4.981c-.043.024-.091.037-.139.037s-.096-.013-.139-.037l-6.571-4.156c-.017-.006-.032-.018-.042-.034s-.016-.035-.016-.054c0-.02.006-.039.016-.054s.025-.028.042-.034z" style="fill:var(--color6, #37474f)"/>
      <path fill="#fff" d="m15.058 23.934 5.104 3.225c.043.024.091.037.139.037s.096-.013.139-.037l6.898-4.362c.017-.006.032-.018.042-.034s.016-.035.016-.054c0-.02-.006-.039-.016-.054s-.025-.028-.042-.034l-5.104-3.225a.285.285 0 0 0-.278 0l-6.897 4.362c-.017.006-.032.018-.042.034s-.016.035-.016.054c0 .02.006.039.016.054s.025.028.042.034z" style="fill:var(--color10, #fff)"/>
      <path fill="#02897a" d="M16.632 23.252c.36-.227.944-.227 1.304 0s.361.597 0 .827-.944.227-1.304 0c-.36-.227-.36-.599 0-.827zM27.338 22.623l-1.492-.944-4.529-.462c-.055-.006-.111.004-.161.029s-.094.063-.128.112a.393.393 0 0 0-.041.343l.782 2.144-2.491-.155c-.049-.003-.097.006-.142.026s-.085.052-.118.091a.366.366 0 0 0-.077.296l.383 2.53.84.531c.043.024.091.037.139.037s.096-.013.139-.037l6.898-4.362c.018-.006.033-.018.044-.034s.017-.036.017-.056c0-.02-.007-.04-.018-.056s-.027-.027-.045-.032z" style="fill:var(--color2, #02897a)"/>
      <path fill="#ebebeb" d="M27.314 16.626v-3.301l3.914-2.475v3.3l-3.914 2.476z" style="fill:var(--color9, #ebebeb)"/>
      <path fill="#e6e6e6" d="m27.314 13.325-4.893-3.094v3.301l4.893 3.094v-3.301z" style="fill:var(--color15, #e6e6e6)"/>
      <path fill="#f0f0f0" d="m27.314 13.325 4.03-2.549-5.009-3.169-4.03 2.55 5.009 3.168z" style="fill:var(--color16, #f0f0f0)"/>
      <path fill="#ebebeb" d="M27.314 13.325v.825l4.03-2.549v-.826l-4.03 2.549z" style="fill:var(--color9, #ebebeb)"/>
      <path fill="#e6e6e6" d="m27.314 14.15 3.914-2.475v.181l-3.914 2.476v-.182z" style="fill:var(--color15, #e6e6e6)"/>
      <path fill="#ebebeb" d="m22.306 10.157 5.009 3.168v.825l-5.009-3.168v-.825z" style="fill:var(--color9, #ebebeb)"/>
      <path fill="#e0e0e0" d="m27.314 14.15-4.893-3.094v.182l4.893 3.094v-.182z" opacity=".5" style="fill:var(--color8, #e0e0e0)"/>
      <path fill="#e0e0e0" d="m28.603 13.827 1.337-.846c.057-.036.104-.007.104.066v.866c-.002.04-.012.078-.03.113s-.043.064-.074.086l-1.337.847c-.058.036-.104.007-.104-.065v-.868c.002-.04.012-.078.03-.113s.044-.063.074-.085z" style="fill:var(--color8, #e0e0e0)"/>
      <path fill="#fff" d="m28.688 13.925 1.166-.738c.039-.024.07-.004.07.044v.652c-.001.027-.008.053-.02.076s-.029.043-.05.057l-1.166.738c-.039.024-.069 0-.069-.045v-.652c.001-.026.008-.052.02-.075s.029-.042.049-.056z" style="fill:var(--color10, #fff)"/>
      <path fill="#ebebeb" d="M27.314 12.91V9.609l3.914-2.476v3.301l-3.914 2.476z" style="fill:var(--color9, #ebebeb)"/>
      <path fill="#e6e6e6" d="m27.314 9.609-4.893-3.094v3.301l4.893 3.094V9.609z" style="fill:var(--color15, #e6e6e6)"/>
      <path fill="#f5f5f5" d="m27.314 9.609 4.03-2.55-5.009-3.168-4.03 2.549 5.009 3.169z" style="fill:var(--color7, #f5f5f5)"/>
      <path fill="#ebebeb" d="M27.314 9.609v.825l4.03-2.549v-.827l-4.03 2.55z" style="fill:var(--color9, #ebebeb)"/>
      <path fill="#e6e6e6" d="m27.314 10.435 3.914-2.476v.182l-3.914 2.475v-.181z" style="fill:var(--color15, #e6e6e6)"/>
      <path fill="#ebebeb" d="m22.306 6.441 5.009 3.169v.825l-5.009-3.168v-.826z" style="fill:var(--color9, #ebebeb)"/>
      <path fill="#e0e0e0" d="M27.314 10.434 22.421 7.34v.181l4.893 3.094v-.181z" opacity=".5" style="fill:var(--color8, #e0e0e0)"/>
      <path fill="#e0e0e0" d="m28.603 10.111 1.337-.846c.057-.036.104-.007.104.066v.866c-.002.04-.013.078-.031.113s-.043.064-.074.086l-1.337.845c-.058.036-.104.007-.104-.066v-.866c.002-.04.012-.078.03-.113s.044-.064.074-.085z" style="fill:var(--color8, #e0e0e0)"/>
      <path fill="#fff" d="m28.688 10.209 1.166-.737c.039-.024.07-.005.07.044v.646a.175.175 0 0 1-.07.132l-1.166.737c-.039.025-.069.005-.069-.044v-.649c.001-.026.009-.051.021-.074s.029-.041.049-.055z" style="fill:var(--color10, #fff)"/>
      <path fill="#e0e0e0" d="m31.017 10.568-3.703 2.343-4.682-2.963-.115.074 4.797 3.023 3.818-2.405-.115-.073z" style="fill:var(--color8, #e0e0e0)"/>
    </symbol>
    <symbol id="icon-support-img" viewBox="0 0 35 32">
      <path fill="#ebebeb" d="M8.121 28.901c5.729 3.279 15.018 3.279 20.747 0s5.73-8.596 0-11.875-15.018-3.28-20.747 0c-5.729 3.28-5.729 8.596 0 11.875z" style="fill:var(--color9, #ebebeb)"/>
      <path fill="#02897a" d="m30.554 20.766-.836-.521s-.205-1.92-.069-3.406c.192-2.09 1.45-4.602 2.951-4.013s-.689 2.722-1.175 4.494c-.486 1.771-.871 3.447-.871 3.447z" style="fill:var(--color2, #02897a)"/>
      <path d="m30.554 20.766-.836-.521s-.205-1.92-.069-3.406c.192-2.09 1.45-4.602 2.951-4.013s-.689 2.722-1.175 4.494c-.486 1.771-.871 3.447-.871 3.447z" opacity=".1" style="fill:var(--color3, #000)"/>
      <path fill="#fff" d="M30.119 20.53c-.008 0-.015-.003-.021-.008s-.01-.013-.011-.021c-.284-2.345.494-5.888 2.065-7.232.003-.003.007-.005.011-.006s.008-.002.012-.001c.004 0 .008.002.012.004s.007.005.009.009.008.016.007.025a.035.035 0 0 1-.012.023c-1.554 1.33-2.322 4.846-2.041 7.169.001.009-.001.018-.006.026s-.013.012-.021.013h-.004z" style="fill:var(--color10, #fff)"/>
      <path fill="#02897a" d="m31 21.136-.594-.369s-.101-1.317.501-2.918c.524-1.389 1.825-2.549 2.48-2.306s.638.741.319 1.263c-.319.522-2.26 1.766-2.705 4.33z" style="fill:var(--color2, #02897a)"/>
      <path fill="#fff" d="m30.632 21.17-.012-.003-.01-.008a.023.023 0 0 1-.006-.012.059.059 0 0 1-.002-.013c.196-3.279 1.743-4.891 2.672-5.137.008-.002.017-.001.025.004s.013.012.015.021c.002.009.001.018-.004.026s-.011.013-.02.016c-.979.26-2.44 2.006-2.623 5.075 0 .005-.001.009-.003.013l-.008.011-.011.007a.02.02 0 0 1-.013.001z" style="fill:var(--color10, #fff)"/>
      <path fill="#02897a" d="M6.484 21.021s.111-1.925-.932-3.245-2.401-1.315-2.85-1.069c-.449.246-.751.948.022 1.451s2.418 1.509 2.692 2.407l1.069.456z" style="fill:var(--color2, #02897a)"/>
      <path d="M6.484 21.021s.111-1.925-.932-3.245-2.401-1.315-2.85-1.069c-.449.246-.751.948.022 1.451s2.418 1.509 2.692 2.407l1.069.456z" opacity=".1" style="fill:var(--color3, #000)"/>
      <path fill="#fff" d="M5.993 20.539c-.01 0-.02-.004-.027-.011s-.012-.017-.013-.028c-.215-2.13-2.2-3.31-2.991-3.444l-.015-.006a.034.034 0 0 1-.012-.012c-.003-.005-.006-.01-.007-.015s-.002-.011-.001-.017l.005-.016a.033.033 0 0 1 .011-.013c.004-.003.009-.006.014-.007s.011-.002.016-.001c.81.136 2.84 1.343 3.06 3.521.001.006 0 .012-.001.017s-.004.011-.007.015l-.012.011c-.004.003-.01.004-.015.005l-.004.001z" style="fill:var(--color10, #fff)"/>
      <path fill="#02897a" d="M5.607 20.05c-.262-.639-.557-.926-1.407-.773s-.729.129-1.769-.156c-.439-.12-.932-.139-1.353.064-.355.174-.621.521-.277.891.387.413.964.555 1.392.919a.72.72 0 0 1 .224.289c.113.307-.113.654-.047.976s.381.494.678.515c.296.021.589-.075.884-.111s.628 0 .832.235c.219.249.224.648.428.913.304.397 1.053.507 1.458.26l1.06-.656c.7-1.012-.405-1.815-.984-2.601-.281-.383-.96-.381-1.117-.766z" style="fill:var(--color2, #02897a)"/>
      <path fill="#fff" d="M7.051 22.805c-.007 0-.014-.002-.02-.005s-.011-.009-.014-.015c-1.209-2.1-4.501-3.163-5.665-3.25-.011-.001-.02-.006-.027-.015s-.01-.02-.01-.031c.001-.011.006-.022.014-.03s.018-.012.029-.011c1.18.087 4.503 1.165 5.728 3.294a.047.047 0 0 1-.014.06.04.04 0 0 1-.021.004z" style="fill:var(--color10, #fff)"/>
      <path fill="#fff" d="M3.221 21.815c-.006 0-.013-.001-.018-.004s-.01-.008-.014-.013c-.006-.009-.009-.021-.008-.032s.007-.022.016-.029c.042-.034 1.046-.824 2.024-.84.005 0 .011.001.015.003s.009.005.013.009a.042.042 0 0 1 .012.03l-.003.017c-.002.006-.005.01-.008.014l-.013.01a.028.028 0 0 1-.015.004c-.95.015-1.965.815-1.975.822a.041.041 0 0 1-.026.009z" style="fill:var(--color10, #fff)"/>
      <path fill="#37474f" d="M6.976 23.543c.009.126.045.249.106.357s.145.2.245.267l9.825 6.083a.736.736 0 0 0 .702 0l13.442-8.323c.106-.06.195-.15.256-.26a.755.755 0 0 0 0-.729.688.688 0 0 0-.256-.26L21.472 14.6a.736.736 0 0 0-.702 0L7.327 22.92c-.1.067-.184.158-.244.267s-.097.23-.106.356z" style="fill:var(--color6, #37474f)"/>
      <path fill="#263238" d="m11.029 20.627-3.703 2.294c-.106.06-.195.15-.256.26a.755.755 0 0 0 0 .729c.062.11.151.2.256.26l9.825 6.083c.108.061.229.09.351.087v-9.712h-6.473z" style="fill:var(--color4, #263238)"/>
      <path fill="#455a64" d="M6.646 22.933c-.098-.071-.178-.166-.235-.277s-.089-.235-.093-.361V9.722c.007-.13.042-.257.103-.371s.146-.209.248-.281L20.111.747a.627.627 0 0 1 .68-.013c.104.064.189.157.247.27s.086.24.082.368v12.573c-.007.13-.042.257-.103.371s-.146.209-.248.281L7.327 22.921a.716.716 0 0 1-.68.012z" style="fill:var(--color5, #455a64)"/>
      <path fill="#263238" d="M7.963 10.307 6.42 9.352a.82.82 0 0 0-.098.371v12.572c.004.127.036.25.093.361s.138.206.235.277a.713.713 0 0 0 .679-.014l1.534-.949-.901-11.663z" style="fill:var(--color4, #263238)"/>
      <path fill="#37474f" d="M6.976 10.13v12.572c0 .24.157.337.351.217l13.442-8.322c.102-.071.187-.168.248-.281s.096-.24.103-.37V1.373c0-.24-.157-.337-.351-.217L7.327 9.479c-.102.071-.187.167-.248.281s-.096.24-.103.371z" style="fill:var(--color6, #37474f)"/>
      <path fill="#455a64" d="m7.326 23.355 9.825 6.078a.736.736 0 0 0 .702 0l13.442-8.323c.194-.12.194-.314 0-.434l-9.824-6.078a.736.736 0 0 0-.702 0L7.326 22.921c-.194.118-.194.313 0 .434z" style="fill:var(--color5, #455a64)"/>
      <path fill="#fff" d="m7.515 10.176 13.066-8.088c.116-.072.211-.014.211.13v10.883c-.004.078-.025.154-.062.222s-.087.126-.149.168L7.515 21.579c-.117.072-.211.014-.211-.13V10.566a.516.516 0 0 1 .211-.39z" style="fill:var(--color10, #fff)"/>
      <path fill="#263238" d="M8.466 23.028 20.944 15.3a.36.36 0 0 1 .35 0l.639.395c.021.008.04.022.053.042a.122.122 0 0 1 0 .134.104.104 0 0 1-.053.042L9.453 23.64a.36.36 0 0 1-.35 0l-.636-.394c-.021-.008-.04-.022-.053-.042a.122.122 0 0 1 0-.134.104.104 0 0 1 .053-.042zM10.112 24.05l12.477-7.728a.366.366 0 0 1 .352 0l3.925 2.431c.021.008.04.022.052.042s.02.043.02.067-.007.047-.02.067a.112.112 0 0 1-.052.042l-12.463 7.712a.366.366 0 0 1-.352 0l-3.939-2.42a.115.115 0 0 1-.069-.107c0-.023.007-.046.019-.065s.03-.034.05-.042z" style="fill:var(--color4, #263238)"/>
      <path fill="#455a64" d="m21.296 19.795.391-.242c.016-.01.015-.027 0-.038l-.452-.28c-.01-.005-.02-.008-.031-.008s-.021.003-.031.008l-.39.242c-.017.01-.016.027 0 .038l.452.28c.01.005.02.008.031.008s.021-.003.031-.008zm-.77-.955-.39.242c-.017.01-.016.027 0 .038l.452.28c.01.005.02.008.031.008s.021-.003.031-.008l.391-.242c.016-.01.015-.028 0-.038l-.453-.28c-.01-.005-.02-.008-.031-.008s-.021.003-.031.008zm-1.262.781-.662.409c-.016.01-.015.028 0 .039l.452.28c.01.005.02.008.031.008s.021-.003.031-.008l.661-.409c.017-.01.015-.028 0-.038l-.452-.28c-.01-.005-.02-.008-.031-.008s-.021.003-.031.008zm.691-.428-.39.242c-.017.01-.016.028 0 .038l.452.28a.065.065 0 0 0 .062 0l.391-.242c.016-.01.015-.027 0-.038l-.453-.286a.065.065 0 0 0-.062 0v.006zm-1.533.949-.39.241c-.017.01-.015.028 0 .039l.452.28c.01.005.02.008.031.008s.021-.003.031-.008l.391-.242c.016-.01.015-.028 0-.038l-.452-.28c-.01-.005-.02-.008-.031-.008s-.021.003-.031.008zm-.567.353-.39.242c-.017.01-.015.027 0 .038l.452.28c.01.005.02.008.031.008s.021-.003.031-.008l.391-.242c.016-.01.015-.028 0-.038l-.457-.286a.065.065 0 0 0-.062 0l.004.006zm1.777 1.138.39-.242c.017-.01.015-.027 0-.038l-.452-.28a.065.065 0 0 0-.062 0l-.391.242c-.016.01-.015.027 0 .038l.452.28c.009.004.02.006.03.005s.02-.004.029-.009l.004.004zm-.571.353.391-.242c.016-.01.015-.027 0-.038l-.452-.28a.065.065 0 0 0-.062 0l-.39.242c-.017.01-.015.028 0 .038l.452.28c.009.004.019.006.029.005s.02-.004.028-.009l.004.004zm-.571.354.391-.241c.016-.01.015-.028 0-.039l-.452-.28c-.01-.005-.02-.008-.031-.008s-.021.003-.031.008l-.39.242c-.017.01-.015.028 0 .038l.451.28c.009.004.02.006.03.005s.02-.004.029-.009l.004.004zm-.567.353.391-.241c.016-.01.015-.028 0-.039l-.452-.28a.065.065 0 0 0-.062 0l-.39.241c-.017.01-.016.028 0 .039l.452.28a.065.065 0 0 0 .053-.004l.008.004zm2.811-2.539.391-.242c.016-.01.015-.027 0-.038l-.452-.28c-.01-.005-.02-.008-.031-.008s-.021.003-.031.008l-.39.242c-.017.01-.016.028 0 .038l.452.28c.009.003.018.004.027.004s.018-.004.026-.008l.008.004zm-.527 1.129.871-.54c.016-.01.015-.027 0-.038l-1.097-.679c-.01-.005-.02-.008-.031-.008s-.021.003-.031.008l-.45.28c-.017.01-.015.027 0 .038l.581.36c.018.011.019.029 0 .039l-.367.214c-.016.01-.015.027 0 .038l.454.277c.009.006.02.01.031.01s.022-.001.032-.006l.008.008zm-2.919-.434-.39.242c-.017.01-.016.027 0 .038l.452.28c.01.005.02.008.031.008s.021-.003.031-.008l.391-.242c.016-.01.015-.027 0-.038l-.452-.28c-.01-.008-.022-.012-.035-.013s-.025.002-.036.009l.008.004zm-.567.353-.403.242c-.016.01-.015.028 0 .038l.452.28a.065.065 0 0 0 .062 0l.391-.242c.016-.01.015-.027 0-.038l-.455-.282a.06.06 0 0 0-.029-.008.08.08 0 0 0-.03.006l.012.004zm-2.868 3.96a.065.065 0 0 0 .062 0l.391-.242c.016-.01.015-.027 0-.038l-.454-.278a.065.065 0 0 0-.062 0l-.39.242c-.017.01-.016.028 0 .038l.453.278zm-1.714-1.136-.391.242c-.016.01-.015.027 0 .038l.452.28a.065.065 0 0 0 .062 0l.391-.242c.016-.01.015-.027 0-.038l-.452-.28c-.009-.005-.02-.008-.03-.008s-.021.003-.03.008h-.002zm.919.829a.065.065 0 0 0 .062 0l.39-.242c.017-.01.015-.027 0-.038l-.451-.28c-.01-.005-.02-.008-.031-.008s-.021.003-.031.008l-.391.242c-.016.01-.015.028 0 .038l.452.28zm1.803.521.391-.242c.016-.01.015-.027 0-.038l-.452-.28a.065.065 0 0 0-.062 0l-.39.242c-.017.01-.015.027 0 .038l.451.28c.01.006.021.009.032.009s.022-.003.033-.008l-.002-.001zm-.633.348a.065.065 0 0 0 .062 0l.391-.242c.016-.01.015-.027 0-.038l-.452-.28c-.01-.005-.02-.008-.031-.008s-.021.003-.031.008l-.39.242c-.017.01-.016.028 0 .038l.451.28zm-1.518-2.057-.39.242c-.017.01-.016.027 0 .038l.452.28a.065.065 0 0 0 .062 0l.391-.242c.016-.01.015-.028 0-.038l-.452-.28a.065.065 0 0 0-.061.005l-.002-.005zm2.855-1.767-.391.241c-.016.01-.015.028 0 .038l.452.28c.01.005.02.008.031.008s.021-.003.031-.008l.39-.241c.017-.01.016-.028 0-.039l-.452-.28a.063.063 0 0 0-.059.005l-.002-.005zm-2.279 1.419-.39.241c-.017.01-.016.028 0 .039l.452.28c.01.005.02.008.031.008s.021-.003.031-.008l.391-.242c.016-.01.015-.028 0-.038l-.452-.28a.065.065 0 0 0-.063 0zm2.855-1.768-.394.241c-.016.01-.015.028 0 .038l.452.28a.065.065 0 0 0 .062 0l.39-.241c.017-.01.016-.028 0-.039l-.45-.276c-.01-.006-.02-.009-.031-.009s-.022.002-.032.007h.003zM15 22.259l-.391.241c-.016.01-.015.028 0 .039l.452.28c.01.005.02.008.031.008s.021-.003.031-.008l.39-.241c.017-.01.015-.028 0-.039l-.451-.28c-.01-.006-.021-.009-.033-.009s-.023.003-.033.009h.003zm-.572.353-.39.241c-.017.01-.015.028 0 .039l.452.28c.01.005.02.008.031.008s.021-.003.031-.008l.39-.241c.016-.01.015-.028 0-.039l-.452-.28c-.01-.006-.021-.009-.033-.009s-.023.003-.033.009h.003zm-.575.354-.39.241c-.017.01-.015.028 0 .039l.451.28a.065.065 0 0 0 .062 0l.391-.241c.016-.01.015-.028 0-.039l-.452-.28c-.01-.005-.02-.008-.031-.008s-.021.003-.031.008zm2.919.434.39-.241c.017-.01.016-.028 0-.039l-.453-.286c-.01-.005-.02-.008-.031-.008s-.021.003-.031.008l-.391.241c-.016.01-.015.028 0 .039l.452.28c.01.006.021.009.032.01s.022-.002.033-.008l-.001.004zm5.017-5.342-.391.242c-.016.01-.015.027 0 .038l.452.28a.065.065 0 0 0 .062 0l.39-.242c.017-.01.016-.027 0-.038l-.452-.28c-.01-.005-.02-.008-.031-.008s-.021.003-.031.008zm-.692.428-.39.242c-.017.01-.015.027 0 .038l.451.28c.01.005.02.008.031.008s.021-.003.031-.008l.391-.242c.016-.01.015-.028 0-.038l-.452-.28c-.009-.006-.02-.01-.031-.011s-.022.001-.032.006l.001.004zm1.263-.781-.39.242c-.017.01-.016.027 0 .038l.452.28a.065.065 0 0 0 .062 0l.391-.242c.016-.01.015-.028 0-.038l-.452-.28a.065.065 0 0 0-.067-.005l.004.004zm-2.956 3.268.391-.242c.016-.01.015-.028 0-.038l-.452-.28a.065.065 0 0 0-.062 0l-.39.242c-.017.01-.016.027 0 .038l.452.28c.01.004.02.006.031.006s.021-.004.03-.01l.001.004zm3.589-3.62a.065.065 0 0 0-.062 0l-.39.242c-.017.01-.016.027 0 .038l.452.28c.01.005.02.008.031.008s.021-.003.031-.008l.391-.242c.016-.01.015-.028 0-.038l-.453-.28zm-5.649 5.689.391-.241c.016-.01.015-.028 0-.039l-.454-.275c-.01-.005-.02-.008-.031-.008s-.021.003-.031.008l-.39.241c-.017.01-.016.028 0 .039l.452.28c.01.005.021.007.032.006s.022-.004.032-.01zm7.002-4.334.391-.242c.016-.01.015-.027 0-.038l-.454-.282a.065.065 0 0 0-.062 0l-.39.242c-.017.01-.016.028 0 .038l.452.28c.01.006.021.009.032.01s.022-.002.032-.007zm-1.215-.046.391-.242c.016-.01.015-.027 0-.038l-.452-.28c-.01-.005-.02-.008-.031-.008s-.021.003-.031.008l-.39.242c-.017.01-.016.027 0 .038l.452.28a.063.063 0 0 0 .059.005l.002-.004zm.508-.914a.065.065 0 0 0-.062 0l-.39.242c-.017.01-.016.027 0 .038l.452.28a.065.065 0 0 0 .062 0l.391-.242c.016-.01.015-.028 0-.038l-.453-.28zm.121-.075 1.096.679a.065.065 0 0 0 .062 0l.391-.242c.016-.01.015-.027 0-.038l-1.097-.679a.065.065 0 0 0-.062 0l-.39.242c-.021.01-.019.027-.002.038h.002zm-1.325.782-.391.242c-.016.01-.015.028 0 .038l.452.28a.065.065 0 0 0 .062 0l.39-.242c.017-.01.016-.027 0-.038l-.452-.28c-.009-.005-.019-.008-.03-.008s-.021.002-.03.007l-.002.002zm-4.297 2.66-.393.242c-.016.01-.015.028 0 .038l.452.28c.01.005.02.008.031.008s.021-.003.031-.008l.39-.242c.017-.01.016-.027 0-.038l-.452-.28c-.009-.005-.02-.008-.031-.009s-.021.002-.031.007l.002.002zm5.577-2.054c.01.005.02.008.031.008s.021-.003.031-.008l.391-.242c.016-.01.015-.027 0-.038l-.452-.28c-.01-.005-.02-.008-.031-.008s-.021.003-.031.008l-.39.242c-.017.01-.016.028 0 .038l.451.28zm-5.007 1.701-.39.242c-.017.01-.016.027 0 .038l.452.28c.01.005.02.008.031.008s.021-.003.031-.008l.391-.242c.016-.01.015-.027 0-.038l-.452-.28c-.01-.006-.021-.009-.032-.01s-.023.002-.033.008l.002.002zm-4.28 4.048c.01.005.02.008.031.008s.021-.003.031-.008l.391-.242c.016-.01.015-.027 0-.038l-.452-.28a.065.065 0 0 0-.062 0l-.39.242c-.017.01-.015.027 0 .038l.451.28zm-.858-.868-.391.242c-.016.01-.015.027 0 .038l.452.28c.01.005.02.008.031.008s.021-.003.031-.008l.39-.242c.017-.01.016-.027 0-.038l-.452-.28c-.01-.006-.021-.008-.032-.008s-.022.003-.032.008h.002zm1.492.515.39-.242c.016-.01.015-.028 0-.038l-.452-.28a.065.065 0 0 0-.062 0l-.394.24c-.016.01-.015.027 0 .038l.452.28a.063.063 0 0 0 .065.002h.002zm.571-.354.39-.242c.017-.01.015-.028 0-.038l-.451-.28a.065.065 0 0 0-.062 0l-.391.241c-.016.01-.015.028 0 .039l.452.28c.01.005.021.008.032.008s.022-.003.032-.008h-.002zm.567-.354.39-.241c.017-.01.016-.028 0-.038l-.452-.28c-.01-.005-.02-.008-.031-.008s-.021.003-.031.008l-.391.241c-.016.01-.015.028 0 .039l.452.28a.062.062 0 0 0 .064 0h-.002zm-2.064-.161-.391.242c-.016.01-.015.027 0 .038l.452.28c.01.005.02.008.031.008s.021-.003.031-.008l.391-.242c.016-.01.015-.028 0-.038l-.452-.28c-.009-.005-.02-.008-.03-.008s-.021.003-.03.008h-.002zm.571-.353-.39.241c-.017.01-.016.028 0 .039l.452.28c.01.005.02.008.031.008s.021-.003.031-.008l.398-.241c.016-.01.015-.028 0-.038l-.452-.28c-.01-.007-.022-.01-.034-.011s-.024.003-.034.009h-.002zm2.285-1.414-.385.241c-.016.01-.015.028 0 .039l.452.28c.01.005.02.008.031.008s.021-.003.031-.008l.39-.241c.017-.01.015-.028 0-.039l-.451-.28c-.01-.006-.021-.009-.033-.009s-.023.003-.033.009h-.002zm-.572.354-.39.241c-.016.01-.015.028 0 .039l.452.28c.01.005.02.008.031.008s.021-.003.031-.008l.39-.241c.017-.01.015-.028 0-.039l-.452-.28c-.009-.005-.02-.007-.03-.007s-.021.003-.03.007h-.002zm1.143-.708-.39.242c-.016.01-.015.028 0 .038l.452.28c.01.005.02.008.031.008s.021-.003.031-.008l.39-.242c.017-.01.016-.027 0-.038l-.452-.28a.064.064 0 0 0-.06-.001h-.002zm-2.285 1.415-.39.241c-.017.01-.016.028 0 .039l.452.28c.01.005.02.008.031.008s.021-.003.031-.008l.391-.242c.016-.01.015-.028 0-.038l-.452-.28a.064.064 0 0 0-.06.001h-.002zm.571-.354-.39.241c-.017.01-.015.028 0 .039l.452.28a.065.065 0 0 0 .062 0l.391-.241c.016-.01.015-.028 0-.039l-.452-.28c-.009-.005-.02-.007-.03-.007s-.021.003-.03.007h-.002zm-.416 2.496.39-.242c.016-.01.015-.028 0-.038l-.452-.28a.065.065 0 0 0-.062 0l-.39.242c-.017.01-.015.027 0 .038l.452.28a.062.062 0 0 0 .064 0h-.002zm-3.349-.367-.452-.28c-.01-.005-.02-.008-.031-.008s-.021.003-.031.008l-.389.244c-.016.01-.015.027 0 .038l.452.28a.065.065 0 0 0 .062 0l.39-.242c.018-.008.017-.025-.001-.04zm.856.27-.452-.28c-.01-.005-.02-.008-.031-.008s-.021.003-.031.008l-.598.374c-.016.01-.015.028 0 .038l.452.28c.01.005.02.008.031.008s.021-.003.031-.008l.601-.372c.019-.009.014-.026-.004-.037v-.004zm-1.549-.811-.454-.276a.065.065 0 0 0-.062 0l-.479.296c-.016.01-.015.028 0 .039l.452.28c.01.005.02.008.031.008s.021-.003.031-.008l.48-.297c.019-.01.019-.027.001-.038v-.003zm.369-.228c.01.005.02.008.031.008s.021-.003.031-.008l.39-.242c.017-.01.016-.027 0-.038l-.452-.28c-.01-.005-.02-.008-.031-.008s-.021.003-.031.008l-.391.242c-.016.01-.015.028 0 .038l.453.28zm1.976 1.345-.449-.276c-.01-.005-.02-.008-.031-.008s-.021.003-.031.008l-.752.465c-.016.01-.015.028 0 .038l.452.28c.01.005.02.008.031.008s.021-.003.031-.008l.751-.465c.016-.01.015-.028-.002-.039v-.003zm.375.567-.452-.274c-.01-.005-.02-.008-.031-.008s-.021.003-.031.008l-.481.298c-.016.01-.015.028 0 .039l.452.28c.01.005.02.008.031.008s.021-.003.031-.008l.481-.298c.019-.012.018-.029 0-.041V25.8zm1.894-4.54a.065.065 0 0 0 .062 0l.39-.241c.017-.01.015-.028 0-.039l-.452-.28c-.01-.005-.02-.008-.031-.008s-.021.003-.031.008l-.39.246c-.016.01-.015.028 0 .038l.452.276zm-1.142.707c.01.005.02.008.031.008s.021-.003.031-.008l.391-.241c.016-.01.015-.028 0-.039l-.452-.28c-.01-.005-.02-.008-.031-.008s-.021.003-.031.008l-.39.241c-.017.01-.015.028 0 .039l.451.28zm-2.532 1.571c.01.005.02.008.031.008s.021-.003.031-.008l.39-.242c.017-.01.016-.027 0-.038l-.452-.28c-.01-.005-.02-.008-.031-.008s-.021.003-.031.008l-.391.242c-.016.01-.015.027 0 .038l.453.28zm3.103-1.92c.01.005.02.008.031.008s.021-.003.031-.008l.391-.241c.016-.01.015-.028 0-.039l-.452-.28c-.01-.005-.02-.008-.031-.008s-.021.003-.031.008l-.39.241c-.017.01-.015.028 0 .039l.452.28zm-1.142.707a.065.065 0 0 0 .062 0l.391-.241c.016-.01.015-.028 0-.039l-.452-.28c-.01-.005-.02-.008-.031-.008s-.021.003-.031.008l-.39.241c-.017.01-.016.028 0 .039l.451.28zm.132 3.525c-.01-.005-.02-.008-.031-.008s-.021.003-.031.008l-.601.371c-.016.01-.015.028 0 .039l.452.28a.065.065 0 0 0 .062 0l.601-.372c.017-.01.015-.028 0-.039l-.452-.279zm-.952-3.016c.01.005.02.008.031.008s.021-.003.031-.008l.391-.242c.016-.01.015-.028 0-.038l-.452-.28c-.01-.005-.02-.008-.031-.008s-.021.003-.031.008l-.39.242c-.017.01-.016.027 0 .038l.451.28zm-.57.347a.065.065 0 0 0 .062 0l.391-.242c.016-.01.015-.028 0-.038l-.452-.28c-.01-.005-.02-.008-.031-.008s-.021.003-.031.008l-.39.242c-.017.01-.016.027 0 .038l.451.28zM25.003 19.3c-.01-.005-.02-.008-.031-.008s-.021.003-.031.008l-.965.594c-.016.01-.015.028 0 .039l.452.28c.01.005.02.008.031.008s.021-.003.031-.008l.967-.591c.017-.01.016-.028 0-.039l-.454-.282zm-1.263.781c-.01-.005-.02-.008-.031-.008s-.021.003-.031.008l-.39.241c-.017.01-.016.028 0 .039l.452.28c.01.005.02.008.031.008s.021-.003.031-.008l.391-.241c.016-.01.015-.028 0-.039l-.453-.28zm-7.734 4.589.39-.242c.017-.01.015-.028 0-.038l-.451-.28c-.01-.005-.02-.008-.031-.008s-.021.003-.031.008l-.391.241c-.016.01-.015.028 0 .039l.452.28a.068.068 0 0 0 .062.001zm6.593-3.882c-.01-.005-.02-.008-.031-.008s-.021.003-.031.008l-.391.241c-.016.01-.015.028 0 .039l.452.28c.01.005.02.008.031.008s.021-.003.031-.008l.39-.241c.017-.01.016-.028 0-.039l-.451-.28zm2.975-1.842c-.01-.005-.02-.008-.031-.008s-.021.003-.031.008l-.39.241c-.017.01-.016.028 0 .038l.452.28c.01.005.02.008.031.008s.021-.003.031-.008l.391-.241c.016-.01.015-.028 0-.039l-.453-.279zm1.022-.073-1.097-.679c-.01-.005-.02-.008-.031-.008s-.021.003-.031.008l-.39.242c-.017.01-.016.028 0 .038l1.097.679a.065.065 0 0 0 .062 0l.391-.242c.018-.01.017-.027-.001-.038zm-6.131 3.237a.065.065 0 0 0-.062 0l-.481.298c-.016.01-.015.028 0 .038l.452.28a.065.065 0 0 0 .062 0l.481-.298c.016-.01.015-.028 0-.038l-.452-.28zm1.442-.894c-.01-.005-.02-.008-.031-.008s-.021.003-.031.008l-.601.372c-.016.01-.015.028 0 .038l.452.28c.01.005.02.008.031.008s.021-.003.031-.008l.601-.372c.016-.01.015-.028 0-.039l-.452-.28zm-2.765 1.712c-.01-.005-.02-.008-.031-.008s-.021.003-.031.008l-3.216 1.99c-.016.01-.015.028 0 .039l.452.28c.01.005.02.008.031.008s.021-.003.031-.008l3.216-1.991c.016-.01.015-.028 0-.039l-.452-.279zm-3.396 2.103c-.01-.005-.02-.008-.031-.008s-.021.003-.031.008l-.48.298c-.017.01-.016.028 0 .038l.452.28a.065.065 0 0 0 .062 0l.483-.294c.016-.01.015-.028 0-.038l-.455-.283zm4.057-2.512c-.01-.005-.02-.008-.031-.008s-.021.003-.031.008l-.48.298c-.017.01-.016.028 0 .039l.452.28c.01.005.02.008.031.008s.021-.003.031-.008l.481-.298c.017-.01.015-.027 0-.038l-.453-.28zm-4.718 2.92c-.01-.005-.02-.008-.031-.008s-.021.003-.031.008l-.481.298c-.016.01-.015.028 0 .039l.452.28c.01.005.02.008.031.008s.021-.003.031-.008l.48-.297c.017-.01.016-.028 0-.039l-.451-.28zm6.041-3.74c-.01-.005-.02-.008-.031-.008s-.021.003-.031.008l-.48.297c-.017.01-.016.028 0 .039l.452.28c.01.005.02.008.031.008s.021-.003.031-.008l.481-.298c.017-.01.015-.028 0-.039l-.453-.279zm2.043-1.265c-.01-.005-.02-.008-.031-.008s-.021.003-.031.008l-.39.241c-.017.01-.016.028 0 .039l.452.28c.01.005.02.008.031.008s.021-.003.031-.008l.391-.241c.016-.01.015-.028 0-.039l-.453-.28zm1.252-.974.39-.241c.017-.01.016-.028 0-.039l-.452-.28c-.01-.005-.02-.008-.031-.008s-.021.003-.031.008l-.391.242c-.016.01-.015.028 0 .038l.452.28c.01.005.021.008.032.008s.022-.003.032-.008v-.001zm-2.551-.013.391-.242c.016-.01.015-.028 0-.038l-.452-.28c-.01-.005-.02-.008-.031-.008s-.021.003-.031.008l-.39.242c-.017.01-.015.027 0 .038l.451.28a.065.065 0 0 0 .062 0zm-1.296 2.4 1.142-.707c.016-.01.015-.028 0-.039l-.452-.28c-.01-.005-.02-.008-.031-.008s-.021.003-.031.008l-1.142.708c-.016.01-.015.027 0 .038l.452.28c.01.005.021.007.032.006s.021-.004.031-.01v.004zm3.213-2.03c.01.005.02.008.031.008s.021-.003.031-.008l.39-.241c.017-.01.016-.028 0-.039l-.452-.28a.065.065 0 0 0-.062 0l-.391.241c-.016.01-.015.028 0 .039l.453.28zm-.583-.398.39-.241c.017-.01.016-.028 0-.039l-.452-.28c-.01-.005-.02-.008-.031-.008s-.021.003-.031.008l-.391.242c-.016.01-.015.028 0 .038l.452.28c.01.004.021.006.032.005s.022-.005.031-.011v.004zm-3.201 2.778.39-.242c.017-.01.015-.027 0-.038l-.452-.28c-.01-.005-.02-.008-.031-.008s-.021.003-.031.008l-.393.241c-.017.01-.015.027 0 .038l.452.28c.011.006.022.01.035.01s.024-.004.034-.011l-.004.002zm2.522-1.601c.01.005.02.008.031.008s.021-.003.031-.008l.391-.241c.016-.01.015-.028 0-.039l-.452-.28c-.01-.005-.02-.008-.031-.008s-.021.003-.031.008l-.39.242c-.017.01-.016.028 0 .038l.451.28zm-5.377 3.367.39-.241c.017-.01.016-.028 0-.039l-.452-.28c-.01-.005-.02-.008-.031-.008s-.021.003-.031.008l-.391.241c-.016.01-.015.028 0 .039l.452.28c.01.005.021.008.032.008s.022-.003.032-.008zm.571-.354.391-.241c.016-.01.015-.028 0-.039l-.451-.28a.065.065 0 0 0-.062 0l-.391.241c-.016.01-.015.028 0 .039l.452.28c.01.005.02.008.031.008s.021-.003.031-.008zm-1.142.707.39-.241c.017-.01.016-.028 0-.039l-.451-.28c-.01-.005-.02-.008-.031-.008s-.021.003-.031.008l-.391.241c-.016.01-.015.028 0 .039l.452.28c.01.005.02.008.031.008s.021-.003.031-.008zm2.284-1.414.391-.241c.016-.01.015-.028 0-.039l-.452-.28c-.01-.005-.02-.008-.031-.008s-.021.003-.031.008l-.39.242c-.017.01-.016.028 0 .038l.452.28c.01.005.02.008.031.008s.021-.003.031-.008zm-.567.354.391-.241c.016-.01.015-.028 0-.039l-.459-.28a.065.065 0 0 0-.062 0l-.39.241c-.017.01-.016.028 0 .038l.452.28c.01.006.021.008.032.008s.022-.003.032-.008h.004zm1.142-.707.391-.242c.016-.01.015-.027 0-.038l-.452-.28c-.01-.005-.02-.008-.031-.008s-.021.003-.031.008l-.397.237c-.017.01-.015.028 0 .038l.451.28c.01.007.02.011.032.011s.023-.001.033-.006h.004zm2.612-5.23a.065.065 0 0 0 .062 0l.391-.242c.016-.01.015-.027 0-.038l-.12-.075c-.01-.005-.02-.008-.031-.008s-.021.003-.031.008l-.391.241c-.016.01-.015.028 0 .039l.12.075zm-2.809 1.945c.01.005.02.008.031.008s.021-.003.031-.008l.39-.241c.017-.01.016-.028 0-.039l-.452-.28c-.01-.005-.02-.008-.031-.008s-.021.003-.031.008l-.391.241c-.016.01-.015.028 0 .039l.453.28zm1.142-.707c.01.005.02.008.031.008s.021-.003.031-.008l.391-.241c.016-.01.015-.028 0-.039l-.452-.28c-.01-.005-.02-.008-.031-.008s-.021.003-.031.008l-.394.241c-.017.01-.016.028 0 .039l.454.28zm-1.839 1.139c.01.005.02.008.031.008s.021-.003.031-.008l.39-.242c.017-.01.016-.028 0-.038l-.452-.28c-.01-.005-.02-.008-.031-.008s-.021.003-.031.008l-.391.241c-.016.01-.015.028 0 .039l.453.28zm1.268-.782c.01.005.02.008.031.008s.021-.003.031-.008l.391-.241c.016-.01.015-.028 0-.039l-.452-.28c-.01-.005-.02-.008-.031-.008s-.021.003-.031.008l-.39.241c-.017.01-.016.028 0 .039l.451.28zm-2.414 1.489a.065.065 0 0 0 .062 0l.39-.242c.017-.01.015-.028 0-.038l-.451-.28c-.01-.005-.02-.008-.031-.008s-.021.003-.031.008l-.391.242c-.016.01-.015.027 0 .038l.452.28zm.571-.354c.01.005.02.008.031.008s.021-.003.031-.008l.39-.242c.017-.01.016-.028 0-.038l-.451-.28c-.01-.005-.02-.008-.031-.008s-.021.003-.031.008l-.391.242c-.016.01-.015.027 0 .038l.452.28zm2.935-2.022c.01.005.02.008.031.008s.021-.003.031-.008l.391-.241c.016-.01.015-.028 0-.039l-.121-.075c-.01-.005-.02-.008-.031-.008s-.021.003-.031.008l-.39.241c-.017.01-.015.028 0 .039l.12.075zm1.714-1.061a.065.065 0 0 0 .062 0l.391-.242c.016-.01.015-.027 0-.038l-.12-.075a.065.065 0 0 0-.062 0l-.391.241c-.016.01-.015.028 0 .039l.121.075zm.948.588c.01.005.02.008.031.008s.021-.003.031-.008l.391-.242c.016-.01.015-.028 0-.038l-.452-.28c-.01-.005-.02-.008-.031-.008s-.021.003-.031.008l-.39.241c-.017.01-.015.028 0 .039l.451.28zm1.427 1.553.391-.242c.016-.01.015-.027 0-.038l-.452-.28c-.01-.005-.02-.008-.031-.008s-.021.003-.031.008l-.39.242c-.017.01-.016.028 0 .038l.452.28c.01.005.02.008.031.008s.021-.003.031-.008zm-3.518-1.434c.01.005.02.008.031.008s.021-.003.031-.008l.391-.241c.016-.01.015-.028 0-.039l-.121-.075c-.01-.005-.02-.008-.031-.008s-.021.003-.031.008l-.39.241c-.016.01-.015.028 0 .039l.12.075zm-4.648 3.083c.01.005.02.008.031.008s.021-.003.031-.008l.39-.242c.016-.01.015-.027 0-.038l-.452-.28c-.01-.005-.02-.008-.031-.008s-.021.003-.031.008l-.39.242c-.016.01-.015.027 0 .038l.452.28z" style="fill:var(--color5, #455a64)"/>
      <path fill="#263238" d="m19.146 24.562 4.276-2.648 2.632 1.629-4.276 2.648-2.631-1.629z" style="fill:var(--color4, #263238)"/>
      <path fill="#f5f5f5" d="m9.642 11.221 12.743-7.889c.249-.155.453-.028.453.28v10.582c-.004.078-.025.154-.062.222s-.087.126-.149.168L9.561 22.673c-.116.071-.21.013-.21-.13V11.76c.006-.108.035-.214.086-.308s.121-.174.206-.233z" style="fill:var(--color7, #f5f5f5)"/>
      <path fill="#f03e3d" d="M22.842 3.866v-.254c0-.308-.204-.434-.453-.28L9.642 11.221c-.085.06-.155.139-.206.233s-.08.199-.086.308v.454l13.491-8.35z" style="fill:var(--color13, #f03e3d)"/>
      <path fill="#fff" d="M20.94 4.444a.371.371 0 0 0-.157.29c0 .107.07.15.156.096a.38.38 0 0 0 .155-.29c0-.107-.07-.15-.155-.097zM21.559 4.061a.369.369 0 0 0-.155.29c0 .107.07.149.156.096a.371.371 0 0 0 .157-.29c0-.107-.07-.15-.156-.096zM22.178 3.677c-.045.032-.083.075-.11.125s-.043.107-.046.165c0 .107.07.15.156.096.045-.032.083-.074.11-.125s.043-.107.046-.165c0-.107-.07-.15-.156-.097z" style="fill:var(--color10, #fff)"/>
      <path fill="#37474f" d="m12.497 17.397-.496-.307-1.214 2.255.496.307 1.214-2.255z" style="fill:var(--color6, #37474f)"/>
      <path fill="#263238" d="m12.498 17.396-.248-.153-1.214 2.255.248.153 1.214-2.255z" style="fill:var(--color4, #263238)"/>
      <path fill="#11b5e4" d="M9.456 23.749c-.226.421-1.296-.247-1.071-.663l2.79-4.666c.008-.013.019-.022.033-.025s.028-.001.04.006l.56.347c.012.007.021.019.025.034s.002.03-.004.043l-2.373 4.923z" style="fill:var(--color12, #11b5e4)"/>
      <path d="m9.456 23.749 2.373-4.923c.006-.013.008-.029.004-.043s-.013-.026-.025-.034l-.255-.158-2.72 5.185c.248.131.521.163.623-.027z" opacity=".1" style="fill:var(--color3, #000)"/>
      <path fill="#11b5e4" d="M17.659 12.766c0-.036 0-.07-.005-.105s0-.069-.007-.102c-.007-.034 0-.045-.006-.068a3.173 3.173 0 0 0-.023-.174l-.013-.076-.014-.071a3.201 3.201 0 0 0-.045-.187l-.026-.087-.004-.013-.028-.081a.8.8 0 0 0-.036-.087c-.013-.026-.018-.043-.028-.063a.31.31 0 0 0-.021-.045l-.027-.054c-.01-.018-.004-.009-.007-.012l-.026-.047-.018-.03a1.54 1.54 0 0 0-.139-.199l-.026-.031-.022-.024-.028-.03a.774.774 0 0 0-.124-.117l-.045-.035a.711.711 0 0 0-.072-.05l-.019-.013h-.004l-1.154-.715a1.358 1.358 0 0 0-.721-.195c-.376 0-.8.132-1.249.41-1.543.955-2.795 3.28-2.795 5.193 0 .955.311 1.624.814 1.938h.005l1.148.709h.005l.014.008a.73.73 0 0 0 .066.037c.028.015.056.028.081.04s.051.022.077.03l.041.013a.225.225 0 0 0 .044.014l.045.012.033.008c.019.004.04.009.061.011a.033.033 0 0 0 .014 0 .61.61 0 0 0 .073.01c.416.047.9-.079 1.419-.399 1.544-.955 2.796-3.281 2.796-5.193-.004-.04-.004-.085-.004-.13zm-1.873-1.352c.061.238.09.483.088.729 0 1.686-1.151 3.821-2.51 4.666a2.344 2.344 0 0 1-.637.284 2.895 2.895 0 0 1-.088-.73c0-1.686 1.151-3.821 2.51-4.666a2.33 2.33 0 0 1 .635-.283h.002z" style="fill:var(--color12, #11b5e4)"/>
      <path d="m12.846 18.28-1.115-.689c-.503-.315-.814-.986-.814-1.937 0-.853.249-1.787.662-2.645l1.148.709c-.413.858-.662 1.792-.662 2.645 0 .934.296 1.595.781 1.918z" opacity=".1" style="fill:var(--color3, #000)"/>
      <path fill="#fff" d="M17.659 12.766c0-.036 0-.07-.005-.105s0-.069-.007-.102c-.007-.034 0-.045-.006-.068a3.173 3.173 0 0 0-.023-.174l-.013-.076-.014-.071a3.201 3.201 0 0 0-.045-.187l-.026-.087-.004-.013-.028-.081a.8.8 0 0 0-.036-.087c-.013-.026-.018-.043-.028-.063a.31.31 0 0 0-.021-.045l-.027-.054c-.01-.018-.004-.009-.007-.012s-.017-.031-.026-.047l-.018-.03a1.54 1.54 0 0 0-.139-.199l-.026-.031-.022-.024-.028-.03a.774.774 0 0 0-.124-.117l-.045-.035a.711.711 0 0 0-.072-.05c-.508-.331-1.215-.292-2.001.194-1.544.955-2.796 3.28-2.796 5.193 0 .968.324 1.645.838 1.952a.73.73 0 0 0 .066.037c.028.015.056.028.081.04s.051.022.077.03l.041.013a.215.215 0 0 0 .045.014l.045.012.033.008c.019.004.04.009.061.011a.033.033 0 0 0 .014 0 .61.61 0 0 0 .073.01c.416.047.9-.079 1.419-.399 1.544-.955 2.796-3.281 2.796-5.193-.002-.043-.002-.089-.002-.134zm-3.077 4.802c-.347.214-.68.327-.965.327-.535 0-.781-.392-.891-.802a2.895 2.895 0 0 1-.088-.73c0-1.686 1.151-3.821 2.51-4.666.199-.126.413-.222.637-.283.106-.028.215-.043.324-.044.885 0 .98 1.072.98 1.533.003 1.683-1.147 3.823-2.507 4.666z" opacity=".4" style="fill:var(--color10, #fff)"/>
      <path d="M17.092 12.902c0 1.686-1.15 3.821-2.51 4.666-.347.214-.68.327-.965.327-.535 0-.781-.392-.891-.802a2.33 2.33 0 0 0 .637-.284c1.362-.843 2.51-2.98 2.51-4.666a2.881 2.881 0 0 0-.088-.729c.106-.028.215-.043.324-.044.887.003.983 1.072.983 1.533z" opacity=".1" style="fill:var(--color3, #000)"/>
      <path fill="#fff" d="M16.606 12.608c0 1.686-1.15 3.821-2.51 4.666-.347.214-.68.327-.965.327a.957.957 0 0 1-.169-.015 1.377 1.377 0 0 1-.234-.493 2.895 2.895 0 0 1-.088-.73c0-1.686 1.151-3.821 2.51-4.666.199-.126.413-.222.637-.283.106-.028.215-.043.324-.044.057 0 .114.005.17.015.28.353.326.92.326 1.223z" opacity=".7" style="fill:var(--color10, #fff)"/>
      <path fill="#e6e6e6" d="M18.563 10.851v1.922c0 .144.095.202.211.13l11.75-7.274a.502.502 0 0 0 .211-.39V3.314c0-.144-.095-.202-.21-.13l-11.75 7.274c-.061.043-.113.101-.149.17s-.058.145-.061.224z" style="fill:var(--color15, #e6e6e6)"/>
      <path fill="#ba68c8" d="m18.774 10.458 2.092-1.295v2.443l-2.092 1.295c-.116.072-.211.014-.211-.13v-1.92c.004-.079.025-.155.061-.224s.088-.126.149-.17z" style="fill:var(--color14, #ba68c8)"/>
      <path fill="#fff" d="M20.174 10.229c-.132-.082-.299-.069-.47.037-.162.112-.297.263-.394.442s-.152.38-.161.587a.587.587 0 0 0 .111.371l-.225.413c-.015.03-.018.064-.01.096s.028.06.054.077a.12.12 0 0 0 .122 0 .13.13 0 0 0 .045-.048l.223-.413a.44.44 0 0 0 .073.008.54.54 0 0 0 .282-.087c.162-.112.297-.264.393-.443s.151-.38.161-.586c.002-.211-.07-.373-.203-.455zm-.47 1.259c-.028.033-.066.054-.108.061s-.084-.002-.12-.024-.064-.057-.08-.099a.217.217 0 0 1-.005-.131c.009-.161.053-.317.129-.456s.179-.258.305-.347a.318.318 0 0 1 .162-.055.125.125 0 0 1 .068.017.27.27 0 0 1 .081.23c-.009.161-.053.317-.128.456s-.179.258-.304.347z" style="fill:var(--color10, #fff)"/>
    </symbol>
    <symbol id="icon-management-img" viewBox="0 0 35 32">
      <path fill="#f5f5f5" d="M5.514 27.739c6.498 3.718 17.035 3.718 23.533 0s6.498-9.748 0-13.467c-6.498-3.719-17.032-3.718-23.533 0s-6.495 9.748 0 13.467z" style="fill:var(--color7, #f5f5f5)"/>
      <path fill="#e0e0e0" d="M3.702 21.641 1.59 20.305v-4.963l2.112 1.336v4.962z" style="fill:var(--color8, #e0e0e0)"/>
      <path fill="#ebebeb" d="m3.702 16.679 3.018-1.908v4.962l-3.018 1.908v-4.962z" style="fill:var(--color9, #ebebeb)"/>
      <path fill="#f5f5f5" d="m6.72 14.77-3.018 1.908-2.112-1.336 3.018-1.908L6.72 14.77z" style="fill:var(--color7, #f5f5f5)"/>
      <path fill="#e0e0e0" d="m4.005 16.869 2.414-1.527.056.035v1.839L4.06 18.743l-.056-.035.001-1.839z" style="fill:var(--color8, #e0e0e0)"/>
      <path fill="#f5f5f5" d="m4.06 16.905 2.415-1.528v1.838L4.06 18.742v-1.838z" style="fill:var(--color7, #f5f5f5)"/>
      <path fill="#e0e0e0" d="m5.006 16.618.411-.26c.053-.034.096-.019.096.034-.004.032-.014.063-.031.09s-.039.05-.065.066l-.411.26c-.053.034-.097.019-.097-.034.004-.032.015-.064.031-.091s.039-.05.065-.066zM3.949 19.195l2.414-1.527v1.839l.056.035-2.415 1.527-.055-.035v-1.839z" style="fill:var(--color8, #e0e0e0)"/>
      <path fill="#f5f5f5" d="m4.004 19.23 2.415-1.527v1.838l-2.415 1.527V19.23z" style="fill:var(--color7, #f5f5f5)"/>
      <path fill="#e0e0e0" d="m4.95 18.944.415-.259c.053-.034.097-.019.097.034-.004.032-.015.064-.031.091s-.039.05-.065.066l-.411.26c-.053.034-.097.019-.097-.034.003-.032.013-.063.03-.09s.038-.05.063-.067zM3.702 16.392 1.59 15.056v-4.962l2.112 1.336v4.963z" style="fill:var(--color8, #e0e0e0)"/>
      <path fill="#ebebeb" d="M3.702 11.43 6.72 9.522v4.963l-3.018 1.908V11.43z" style="fill:var(--color9, #ebebeb)"/>
      <path fill="#f5f5f5" d="m6.72 9.521-3.018 1.908-2.112-1.335 3.018-1.909L6.72 9.521z" style="fill:var(--color7, #f5f5f5)"/>
      <path fill="#e0e0e0" d="m4.004 11.621 2.415-1.527.056.035v1.839L4.06 13.495l-.056-.036v-1.838z" style="fill:var(--color8, #e0e0e0)"/>
      <path fill="#e0e0e0" d="m5.006 11.368.41-.26c.053-.033.097-.018.097.035-.004.032-.015.063-.032.091s-.039.05-.065.066l-.41.26c-.053.033-.097.019-.097-.034.004-.033.015-.064.031-.091s.039-.05.065-.066zM3.949 13.947l2.414-1.527v1.838l.056.035-2.415 1.527-.055-.035v-1.838z" style="fill:var(--color8, #e0e0e0)"/>
      <path fill="#f5f5f5" d="m4.004 13.982 2.415-1.527v1.838L4.004 15.82v-1.838z" style="fill:var(--color7, #f5f5f5)"/>
      <path fill="#e0e0e0" d="m4.95 13.694.415-.26c.053-.033.097-.018.097.035a.221.221 0 0 1-.097.156l-.415.257c-.053.033-.097.018-.097-.034.004-.032.015-.063.032-.09s.039-.049.065-.065zM4.004 11.621l2.415-1.527v1.838l-2.415 1.527v-1.838z" style="fill:var(--color8, #e0e0e0)"/>
      <path fill="#e0e0e0" d="m7.626 11.002-1.322-.836v1.62l1.322.835v-1.619z" style="fill:var(--color8, #e0e0e0)"/>
      <path fill="#ebebeb" d="M4.91 13.72v-2.291l.518-.329.085.138 1.509-.955v2.1L4.91 13.719z" style="fill:var(--color9, #ebebeb)"/>
      <path fill="#f5f5f5" d="m4.91 13.72.151-2.005 2.112-1.335-.151 2.004L4.91 13.72z" style="fill:var(--color7, #f5f5f5)"/>
      <path fill="#ebebeb" d="m5.211 12.529-1.152-.728v1.62l1.152.728V12.53z" style="fill:var(--color9, #ebebeb)"/>
      <path fill="#f5f5f5" d="m5.211 12.384 2.415-1.527v1.838l-2.415 1.527v-1.838z" style="fill:var(--color7, #f5f5f5)"/>
      <path fill="#e0e0e0" d="m6.158 12.097.41-.26c.053-.033.097-.018.097.035-.004.032-.015.063-.032.091s-.039.05-.065.066l-.41.26c-.053.033-.097.018-.097-.034.004-.033.015-.064.031-.091s.039-.05.065-.066zM5.211 12.384l-.08-.05v1.838l.08.05v-1.838z" style="fill:var(--color8, #e0e0e0)"/>
      <path fill="#ebebeb" d="m5.131 12.334 2.414-1.528.081.051-2.415 1.527-.08-.05z" style="fill:var(--color9, #ebebeb)"/>
      <path fill="#e0e0e0" d="m28.658 18.635-2.113-1.336v-4.962l2.113 1.336v4.963z" style="fill:var(--color8, #e0e0e0)"/>
      <path fill="#ebebeb" d="m28.658 13.672 3.018-1.908v4.963l-3.018 1.908v-4.963z" style="fill:var(--color9, #ebebeb)"/>
      <path fill="#f5f5f5" d="m31.676 11.763-3.018 1.908-2.113-1.336 3.019-1.909 2.112 1.336z" style="fill:var(--color7, #f5f5f5)"/>
      <path fill="#e0e0e0" d="m28.959 13.863 2.415-1.527.056.035-.001 1.838-2.414 1.527-.056-.035v-1.838z" style="fill:var(--color8, #e0e0e0)"/>
      <path fill="#f5f5f5" d="m29.015 13.898 2.415-1.527-.001 1.838-2.414 1.527v-1.838z" style="fill:var(--color7, #f5f5f5)"/>
      <path fill="#e0e0e0" d="m29.962 13.611.41-.26c.053-.033.097-.018.097.034-.004.033-.015.064-.031.091s-.039.05-.065.066l-.41.26c-.053.033-.097.018-.097-.034.004-.033.015-.064.031-.091s.039-.05.065-.066zM28.904 16.189l2.415-1.528V16.5l.056.035-2.415 1.527-.056-.035v-1.838z" style="fill:var(--color8, #e0e0e0)"/>
      <path fill="#f5f5f5" d="m28.959 16.224 2.415-1.527v1.838l-2.415 1.527v-1.838z" style="fill:var(--color7, #f5f5f5)"/>
      <path fill="#e0e0e0" d="m29.906 15.937.411-.26c.053-.033.096-.018.096.034-.004.033-.015.064-.031.091s-.039.05-.065.066l-.411.26c-.053.033-.097.018-.097-.035a.221.221 0 0 1 .097-.156z" style="fill:var(--color8, #e0e0e0)"/>
      <path fill="#02897a" d="M8.498 23.821s.008-1.291-.735-2.258c-.658-.857-1.008-1.401-.8-1.651s.653-.311 1.254.383c.601.693.648 2.614.565 3.049l-.284.479z" style="fill:var(--color2, #02897a)"/>
      <path d="M8.498 23.821s.008-1.291-.735-2.258c-.658-.857-1.008-1.401-.8-1.651s.653-.311 1.254.383c.601.693.648 2.614.565 3.049l-.284.479z" opacity=".2" style="fill:var(--color3, #000)"/>
      <path fill="#fff" d="M8.623 22.434c-.008 0-.017-.003-.023-.009s-.011-.014-.013-.023c-.26-1.332-.927-2.069-1.302-2.389-.008-.007-.013-.016-.014-.027s.001-.021.007-.03c.006-.009.015-.014.025-.015s.02.002.028.008c.383.326 1.064 1.079 1.329 2.437v.016a.088.088 0 0 1-.005.015l-.01.011a.031.031 0 0 1-.013.006l-.008.001z" style="fill:var(--color10, #fff)"/>
      <path fill="#02897a" d="m8.47 24.301-.302.191c-.032-.097-.087-.182-.158-.249s-.157-.113-.249-.132c-.331-.081-.674-.068-.906-.382s.051-.656 0-.887c-.051-.231-.083-.298-.498-.529s-.578-.614-.266-.874c.312-.26.817-.069 1.123.163.272.203.53.257.834.299s.799.226.723.999c-.05.479-.151.949-.302 1.401z" style="fill:var(--color2, #02897a)"/>
      <path fill="#fff" d="M7.309 23.285c-.008 0-.016-.003-.022-.008s-.011-.012-.014-.021c-.003-.01-.002-.021.003-.031s.012-.017.022-.02c.027-.009.669-.232.941.007.007.007.011.017.012.027a.04.04 0 0 1-.031.043.034.034 0 0 1-.026-.006c-.241-.212-.866.005-.873.007l-.011.002z" style="fill:var(--color10, #fff)"/>
      <path fill="#fff" d="M8.504 24.239c-.009 0-.018-.004-.024-.01s-.011-.016-.012-.026c-.166-1.714-2.051-2.527-2.069-2.535-.005-.002-.009-.005-.012-.008l-.008-.013a.045.045 0 0 1 0-.032c.004-.01.011-.018.019-.022s.019-.005.028-.001c.02.009 1.947.839 2.117 2.604.001.011-.002.021-.008.03s-.015.014-.025.015l-.004-.002z" style="fill:var(--color10, #fff)"/>
      <path fill="#02897a" d="M26.984 23.175c.008-.028.327-1.825 0-3.1-.297-1.169-.685-1.6-1.238-1.695s-.793.341-.499.932c.293.591 1 1.375 1.173 2.695.074.544.131 1.016.131 1.016l.433.153z" style="fill:var(--color2, #02897a)"/>
      <path d="M26.984 23.175c.008-.028.327-1.825 0-3.1-.297-1.169-.685-1.6-1.238-1.695s-.793.341-.499.932c.293.591 1 1.375 1.173 2.695.074.544.131 1.016.131 1.016l.433.153z" opacity=".2" style="fill:var(--color3, #000)"/>
      <path fill="#fff" d="M26.797 22.143c-.005 0-.01-.002-.014-.004s-.008-.006-.012-.01-.006-.009-.007-.014c-.002-.005-.002-.01-.002-.016.074-1.455-.36-2.754-1.138-3.391-.008-.006-.013-.016-.014-.027s.001-.022.007-.03.015-.014.024-.016.02.001.028.007c.797.651 1.244 1.979 1.166 3.461-.001.011-.005.021-.012.028s-.017.011-.026.011z" style="fill:var(--color10, #fff)"/>
      <path fill="#02897a" d="M27.839 24.111c-.042-.334.133-.836.55-.955s.603-.381.452-.667c-.15-.286-.115-.549.263-.668s.71-.326.492-.763c-.158-.317-.193-.522.195-1.145.322-.518.059-.821-.344-.764s-.652.583-.904.671c-.252.088-.31-.381-.642-.171s-.312.748-.322 1.123c-.01.375-.033.46-.333.414s-.594.008-.588.803c.005.682.337 1.527.337 1.527l.843.596z" style="fill:var(--color2, #02897a)"/>
      <path fill="#fff" d="M27.312 23.602h-.004c-.01-.001-.019-.007-.025-.015s-.009-.019-.008-.03c.21-2.05 1.816-3.78 2.235-4.13a.036.036 0 0 1 .053.008.04.04 0 0 1 .007.03.04.04 0 0 1-.014.027c-.414.346-1.999 2.053-2.206 4.074-.001.01-.005.019-.012.026s-.016.011-.025.011z" style="fill:var(--color10, #fff)"/>
      <path fill="#fff" d="M28.045 21.411a.038.038 0 0 1-.035-.026c-.003-.01-.003-.021.002-.031s.012-.018.021-.022c.599-.244 1.278-.129 1.307-.124.01.002.018.008.024.016s.008.019.007.03a.04.04 0 0 1-.042.034c-.007 0-.689-.117-1.269.12-.004.002-.009.002-.013.003zM27.511 22.643c-.005 0-.01-.001-.015-.004s-.009-.006-.012-.01a2.504 2.504 0 0 1-.49-1.113c-.001-.005 0-.011.001-.016s.003-.01.006-.014l.011-.011a.024.024 0 0 1 .014-.005c.005-.001.01 0 .014.001s.009.004.013.007.007.007.01.012.004.01.005.015c.071.395.234.764.472 1.07.005.006.008.013.009.021s0 .016-.003.023-.008.013-.014.018a.037.037 0 0 1-.02.007z" style="fill:var(--color10, #fff)"/>
      <path fill="#22343d" d="M8.532 11.705v12.597l11.77-7.444-.001-11.452-8.752 5.535-.302-.955-2.716 1.718z" style="fill:var(--color17, #22343d)"/>
      <path fill="#e0e0e0" d="m8.532 24.301.603-11.452 11.77-7.444-.603 11.452-11.77 7.444z" style="fill:var(--color8, #e0e0e0)"/>
      <path fill="#22343d" d="m8.532 24.301.905-11.26 11.77-7.444-.905 11.261-11.77 7.443z" style="fill:var(--color17, #22343d)"/>
      <path fill="#f03e3d" d="M10.342 12.911v12.598l11.77-7.444V6.613l-8.752 5.535-.302-.955-2.716 1.718z" style="fill:var(--color13, #f03e3d)"/>
      <path fill="#e0e0e0" d="m10.342 25.509.603-11.453 11.77-7.444-.603 11.452-11.77 7.444z" style="fill:var(--color8, #e0e0e0)"/>
      <path fill="#f03e3d" d="m10.342 25.509.905-11.261 11.77-7.444-.905 11.261-11.77 7.444z" style="fill:var(--color13, #f03e3d)"/>
      <path fill="#e0e0e0" d="M20.299 29.456c-2.113-1.336-4.073-2.789-4.968-4.493l2.719-1.72 2.248 6.213z" style="fill:var(--color8, #e0e0e0)"/>
      <path fill="#02897a" d="M12.455 14.186v12.597l11.77-7.444V7.887l-8.752 5.535-.302-.955-2.716 1.718z" style="fill:var(--color2, #02897a)"/>
      <path d="M12.455 14.186v12.597l11.77-7.444V7.887l-8.752 5.535-.302-.955-2.716 1.718z" opacity=".2" style="fill:var(--color3, #000)"/>
      <path fill="#fff" d="M15.846 17.91c-.03 0-.034-.037-.034-.059V7.108a.282.282 0 0 1 .11-.208l8.495-5.371a.079.079 0 0 1 .039-.013c.03 0 .034.037.034.059v10.743a.276.276 0 0 1-.11.209l-8.495 5.371a.069.069 0 0 1-.039.012z" style="fill:var(--color10, #fff)"/>
      <path fill="#02897a" d="M24.451 1.553a.054.054 0 0 1 0 .018v10.743a.236.236 0 0 1-.092.174l-8.51 5.379a.054.054 0 0 1 0-.018V7.106c.003-.035.012-.068.028-.098s.037-.056.063-.075l8.495-5.371a.033.033 0 0 1 .016-.007l-.001-.001zm.005-.081a.108.108 0 0 0-.057.019l-8.495 5.371a.32.32 0 0 0-.129.244v10.743c0 .063.029.1.074.1a.108.108 0 0 0 .057-.019l8.495-5.371c.038-.027.069-.063.091-.105s.035-.09.037-.139V1.572c0-.063-.029-.101-.074-.1z" style="fill:var(--color2, #02897a)"/>
      <path fill="#fff" d="M24.451 1.553a.054.054 0 0 1 0 .018v10.743a.236.236 0 0 1-.092.174l-8.51 5.379a.054.054 0 0 1 0-.018V7.106c.003-.035.012-.068.028-.098s.037-.056.063-.075l8.495-5.371a.033.033 0 0 1 .016-.007l-.001-.001zm.005-.081a.108.108 0 0 0-.057.019l-8.495 5.371a.32.32 0 0 0-.129.244v10.743c0 .063.029.1.074.1a.108.108 0 0 0 .057-.019l8.495-5.371c.038-.027.069-.063.091-.105s.035-.09.037-.139V1.572c0-.063-.029-.101-.074-.1z" opacity=".7" style="fill:var(--color10, #fff)"/>
      <path fill="#02897a" d="m16.68 7.516 3.018-1.909v3.817l-3.018 1.908V7.515z" style="fill:var(--color2, #02897a)"/>
      <path fill="#11b5e4" d="m16.68 7.516 3.018-1.909v3.817l-3.018 1.908V7.515z" opacity=".8" style="fill:var(--color12, #11b5e4)"/>
      <path fill="#fff" d="M19.246 6.559v1.148l-.095.058v-.351c0-.194-.143-.26-.322-.147l-1.279.81c-.178.112-.322.361-.322.554v.351l-.094.062V7.899l2.112-1.339z" style="fill:var(--color10, #fff)"/>
      <path fill="#fff" d="M18.665 9.48c-.155.098-.28-.005-.28-.23V7.413l-.389.231v1.852c0 .225-.126.488-.28.584l-.281.177v.122l1.509-.955v-.121l-.279.177z" style="fill:var(--color10, #fff)"/>
      <path fill="#455a64" d="M20.299 5.419c0 .106.087.136.193.069l2.936-1.86c.052-.032.097-.077.13-.132s.055-.116.063-.181c0-.105-.087-.136-.193-.068l-2.934 1.856c-.053.032-.098.078-.132.133s-.056.118-.063.184zM20.299 6.559c0 .106.087.137.193.069l2.934-1.856c.052-.032.097-.077.13-.132s.055-.117.063-.181c0-.105-.087-.136-.193-.068l-2.934 1.856c-.052.032-.096.077-.13.131s-.055.116-.063.181zM20.299 7.706c0 .106.087.137.193.069l2.934-1.856c.052-.032.096-.077.13-.131s.055-.116.063-.181c0-.106-.087-.137-.193-.069l-2.934 1.856c-.052.032-.096.077-.13.131s-.055.116-.063.181zM20.299 8.851c0 .106.087.137.193.069l2.934-1.856c.052-.032.096-.077.13-.131s.055-.116.063-.181c0-.106-.087-.137-.193-.069l-2.934 1.856c-.052.032-.096.077-.13.131s-.055.116-.063.181zM16.68 12.287c0 .106.086.137.193.069l6.555-4.151c.052-.032.097-.077.13-.131s.055-.116.063-.181c0-.106-.087-.136-.193-.069l-6.555 4.151c-.052.032-.097.077-.13.131s-.055.116-.063.181zM16.68 13.432c0 .106.086.137.193.069l6.555-4.146c.052-.032.097-.077.13-.132s.055-.117.063-.181c0-.105-.087-.136-.193-.068l-6.555 4.146c-.052.032-.097.077-.13.131s-.055.116-.063.181zM16.68 14.578c0 .105.086.136.193.068l6.555-4.146c.052-.032.097-.077.13-.132s.055-.116.063-.181c0-.105-.087-.136-.193-.068l-6.555 4.146c-.052.032-.097.077-.13.132s-.055.117-.063.182z" style="fill:var(--color5, #455a64)"/>
      <path fill="#02897a" d="m12.455 26.783 2.112-10.115 11.77-7.444-2.112 10.116-11.77 7.444z" style="fill:var(--color2, #02897a)"/>
      <path fill="#02897a" d="M15.334 17.459v7.503l2.716-1.718v-7.502l-2.716 1.717z" style="fill:var(--color2, #02897a)"/>
      <path d="M15.334 17.459v7.503l2.716-1.718v-7.502l-2.716 1.717z" opacity=".2" style="fill:var(--color3, #000)"/>
      <path fill="#fff" d="M20.304 29.407c-.231-.189-2.459-2.053-3.591-4.72-1.205-2.835-1.204-6.143-1.204-7.387v-.039l8.075-5.106c0 1.256 0 4.568 1.21 7.413 1.106 2.604 3.248 4.445 3.588 4.727l-8.079 5.113z" style="fill:var(--color10, #fff)"/>
      <path fill="#02897a" d="M23.547 12.227c0 1.309.023 4.558 1.214 7.361 1.069 2.515 3.102 4.323 3.554 4.705l-8.009 5.065c-.313-.258-2.456-2.092-3.559-4.685-1.204-2.827-1.204-6.128-1.204-7.371v-.015l8.003-5.059zm.072-.142-8.149 5.154c0 1.171-.022 4.574 1.207 7.467 1.21 2.84 3.622 4.749 3.622 4.749L28.45 24.3s-2.415-1.909-3.621-4.749c-1.23-2.893-1.207-6.296-1.207-7.467l-.003.001z" style="fill:var(--color2, #02897a)"/>
      <path fill="#fff" d="M23.547 12.227c0 1.309.023 4.558 1.214 7.361 1.069 2.515 3.102 4.323 3.554 4.705l-8.009 5.065c-.313-.258-2.456-2.092-3.559-4.685-1.204-2.827-1.204-6.128-1.204-7.371v-.015l8.003-5.059zm.072-.142-8.149 5.154c0 1.171-.022 4.574 1.207 7.467 1.21 2.84 3.622 4.749 3.622 4.749L28.45 24.3s-2.415-1.909-3.621-4.749c-1.23-2.893-1.207-6.296-1.207-7.467l-.003.001z" opacity=".7" style="fill:var(--color10, #fff)"/>
      <path fill="#455a64" d="m22.7 13.814-2.577 1.628c-.052.031-.096.075-.128.129s-.053.115-.059.179c.004.103.094.133.2.065l2.577-1.628a.395.395 0 0 0 .187-.304c-.004-.107-.093-.137-.2-.069zM22.755 14.925l-2.577 1.628c-.051.03-.094.074-.126.127s-.05.114-.054.177c.008.1.102.127.208.059l2.577-1.628c.051-.03.094-.073.125-.127s.049-.114.053-.177c-.007-.101-.1-.125-.207-.06zM22.858 16.005l-2.577 1.628c-.106.068-.184.202-.171.299s.11.122.217.055l2.577-1.628c.106-.068.182-.201.169-.298s-.108-.123-.215-.055zM23.013 17.052l-2.577 1.628c-.106.068-.18.199-.162.294s.119.116.223.048l2.577-1.628c.107-.068.178-.199.16-.293s-.111-.116-.221-.049zM23.222 18.065l-2.577 1.628c-.106.068-.175.196-.149.286s.128.111.235.043l2.577-1.628c.107-.068.174-.195.149-.286s-.128-.111-.235-.043zM23.494 19.041l-6.281 3.972c-.106.068-.171.193-.142.28s.14.103.246.036l6.281-3.972c.107-.068.169-.192.14-.28s-.141-.103-.244-.036zM23.825 19.973l-6.28 3.972c-.107.068-.166.19-.13.273s.149.096.257.028l6.281-3.972c.107-.068.164-.19.129-.273s-.149-.095-.256-.028zM24.237 20.86l-6.281 3.972c-.107.068-.16.186-.117.265s.163.087.27.02l6.277-3.972c.106-.067.157-.185.115-.264s-.16-.089-.264-.021zM24.718 21.7l-6.28 3.972c-.107.068-.154.184-.106.258s.175.081.282.013l6.28-3.972c.107-.068.153-.182.105-.257s-.174-.081-.281-.013zM25.266 22.499l-6.281 3.972c-.106.068-.149.181-.095.251s.185.074.292.007l6.281-3.974c.106-.068.149-.179.094-.25s-.184-.076-.291-.006zM25.872 23.259l-6.279 3.972c-.107.068-.149.178-.086.244s.195.068.301 0l6.281-3.972c.107-.068.144-.177.085-.244s-.193-.066-.302.001zM26.54 23.986l-6.281 3.972c-.106.068-.141.176-.074.24s.204.062.311-.006l6.276-3.972c.106-.068.14-.173.074-.238s-.201-.063-.305.005z" style="fill:var(--color5, #455a64)"/>
      <path fill="#02897a" d="m19.189 16.035-2.963 1.872c.033 1.176.155 2.872.604 4.58l2.964-1.872c-.449-1.708-.572-3.405-.605-4.58z" style="fill:var(--color2, #02897a)"/>
      <path fill="#11b5e4" d="m19.189 16.035-2.963 1.872c.033 1.176.155 2.872.604 4.58l2.964-1.872c-.449-1.708-.572-3.405-.605-4.58z" opacity=".8" style="fill:var(--color12, #11b5e4)"/>
      <path fill="#02897a" d="M17.434 17.648a.58.58 0 0 0-.145-.412l-1.064.672c.009.311.024.658.05 1.033a.653.653 0 0 0 .402-.081c.418-.21.756-.754.756-1.212z" style="fill:var(--color2, #02897a)"/>
      <path fill="#fff" d="M17.434 17.648a.58.58 0 0 0-.145-.412l-1.064.672c.009.311.024.658.05 1.033a.653.653 0 0 0 .402-.081c.418-.21.756-.754.756-1.212z" opacity=".6" style="fill:var(--color10, #fff)"/>
      <path fill="#02897a" d="M19.542 19.492c-.198-.273-.6-1.115-.771-1.482-.007-.015-.017-.026-.03-.034s-.028-.011-.043-.01c-.015.001-.029.008-.04.018s-.02.024-.024.04a9.666 9.666 0 0 0-.321 2.136 3.008 3.008 0 0 1-.629-.767.064.064 0 0 0-.066-.029c-.012.002-.024.009-.033.018s-.016.021-.019.035c-.324 1.366-.161 2.711-.161 2.711l2.39-1.512c-.1-.378-.182-.754-.252-1.123z" style="fill:var(--color2, #02897a)"/>
      <path fill="#fff" d="M19.542 19.492c-.198-.273-.6-1.115-.771-1.482-.007-.015-.017-.026-.03-.034s-.028-.011-.043-.01c-.015.001-.029.008-.04.018s-.02.024-.024.04a9.666 9.666 0 0 0-.321 2.136 3.008 3.008 0 0 1-.629-.767.064.064 0 0 0-.066-.029c-.012.002-.024.009-.033.018s-.016.021-.019.035c-.324 1.366-.161 2.711-.161 2.711l2.39-1.512c-.1-.378-.182-.754-.252-1.123z" opacity=".6" style="fill:var(--color10, #fff)"/>
    </symbol>
  </defs>
</svg>
